<svg width="57" height="57" viewBox="0 0 57 57" fill="none" xmlns="http://www.w3.org/2000/svg">
<mask id="path-1-inside-1_1_29" fill="white">
<path d="M0.34668 0.296143H56.3467V56.2961H0.34668V0.296143Z"/>
</mask>
<path d="M0.34668 0.296143H56.3467V56.2961H0.34668V0.296143Z" fill="white"/>
<path fill-rule="evenodd" clip-rule="evenodd" d="M33.2899 19.3534C33.8106 19.8741 33.8106 20.7183 33.2899 21.239L26.2327 28.2962L33.2899 35.3534C33.8106 35.8741 33.8106 36.7183 33.2899 37.239C32.7692 37.7597 31.9249 37.7597 31.4042 37.239L23.4042 29.239C22.8835 28.7183 22.8835 27.8741 23.4042 27.3534L31.4042 19.3534C31.9249 18.8327 32.7692 18.8327 33.2899 19.3534Z" fill="#51595B" fill-opacity="0.25"/>
<path d="M55.3467 0.296143V56.2961H57.3467V0.296143H55.3467Z" fill="#51595B" fill-opacity="0.08" mask="url(#path-1-inside-1_1_29)"/>
</svg>
